PathFileType	4	(X/Y/Z)	C:/Users/beibeiliu/ov580/test_trc/User3\sequence.13_training_dense_left.trc
DataRate	CameraRate	NumFrames	NumMarkers	Units	OrigDataRate	OrigDataStartFrame	OrigNumFrames
120	120	19	19	mm	120	105	278
Frame#	Time	ThumbCMC			ThumbMCP			ThumbIP			ThumbTip			IndexMCP			IndexPIP			IndexTip			MiddleMCP			MiddlePIP			MiddleTip			RingMCP			RingPIP			RingTip			PinkyMCP			PinkyPIP			PinkyTip			BackHand1			BackHand2			BackHand3	
		X0	Y0	Z0	X1	Y1	Z1	X2	Y2	Z2	X3	Y3	Z3	X4	Y4	Z4	X5	Y5	Z5	X6	Y6	Z6	X7	Y7	Z7	X8	Y8	Z8	X9	Y9	Z9	X10	Y10	Z10	X11	Y11	Z11	X12	Y12	Z12	X13	Y13	Z13	X14	Y14	Z14	X15	Y15	Z15	X16	Y16	Z16	X17	Y17	Z17	X18	Y18	Z18	
104	0.866667	-143.123	-26.5561	24.4913	-140.166	-39.4527	-11.4092	-151.058	-47.947	-40.3891	-179.377	-46.8005	-52.1077	-145.685	14.3662	-42.4976	-141.056	11.9834	-71.9175	-138.032	4.55602	-98.0521	-175.04	23.4272	-42.0265	-171.013	34.0462	-68.4622	-168.105	39.4236	-102.303	-191.609	11.0613	-44.1946	-190.37	12.9494	-66.6372	-189.245	5.27746	-96.9385	-203.415	-11.3796	-32.34	-195.233	-28.0655	-55.2074	-189.992	-57.3299	-50.3617	-196.567	7.1587	9.80044	-199.345	-0.776858	42.0595	-160.966	5.73389	27.0757	
105	0.875	-143.864	-26.03	21.6686	-140.896	-42.666	-10.1678	-156.67	-46.7448	-37.7666	-176.832	-49.7888	-47.9358	-143.701	11.2127	-42.1878	-142.642	9.6904	-68.1451	-136.536	3.17619	-97.4908	-169.196	22.5128	-41.3934	-168.716	31.2822	-66.6031	-165.749	39.481	-98.2859	-190.872	7.96315	-38.0954	-190.149	12.8064	-67.7618	-193.408	11.8593	-96.1233	-207.043	-13.8673	-34.1061	-199.928	-33.0321	-52.8678	-188.416	-56.8381	-42.1387	-190.924	6.89524	12.029	-194.063	0.265636	42.6865	-163.424	5.87987	23.2737	
106	0.883333	-139.278	-28.744	22.8945	-138.817	-46.2009	-10.2796	-157.533	-48.8398	-38.7791	-185.058	-47.284	-47.4813	-144.372	9.77193	-45.5067	-140.374	7.70734	-70.3424	-138.522	1.16928	-95.2148	-170.727	22.7948	-44.5381	-167.953	28.9869	-67.7351	-167.983	38.813	-98.682	-190.264	7.8962	-38.2188	-193.655	10.9916	-63.8037	-196.208	12.2027	-89.8167	-204.178	-15.1296	-35.9264	-203.019	-38.2696	-49.7983	-190.926	-62.8661	-31.3555	-193.416	6.02829	10.5032	-193.97	-0.735745	43.8498	-158.161	5.13361	26.8786	
107	0.891667	-141.557	-30.0414	24.0408	-142.91	-43.3604	-13.4814	-158.813	-48.1332	-36.7955	-185.486	-46.138	-47.2516	-142.836	8.92561	-41.9026	-141.09	6.58853	-69.5956	-141.08	-0.396452	-95.3757	-169.84	21.8306	-44.7804	-166.062	29.4182	-69.8727	-166.128	36.7412	-95.299	-191.178	8.88718	-39.6065	-195.116	12.9336	-62.0455	-192.843	14.7153	-89.6281	-206.049	-14.1988	-33.8017	-201.619	-37.1323	-46.2757	-190.006	-58.5968	-27.9175	-193.148	7.52479	12.2685	-191.977	-0.0828771	44.099	-157.343	7.30403	26.234	
108	0.9	-140.162	-30.5634	23.8871	-144.22	-43.4226	-10.9393	-159.506	-48.4031	-37.7677	-184.586	-46.8472	-44.4996	-142.074	7.80803	-42.8132	-140.209	5.03039	-70.1136	-136.983	-3.49238	-97.3556	-165.636	21.8952	-44.7125	-164.627	28.6218	-71.3804	-161.729	36.6705	-98.5467	-190.121	11.088	-41.5998	-192.901	14.4287	-61.592	-192.71	15.1575	-89.8082	-206.647	-14.8265	-32.5476	-202.639	-41.3012	-43.0244	-190.091	-57.9494	-25.842	-188.082	9.31119	13.3021	-188.629	3.28323	42.8891	-156.605	4.77844	24.5732	
109	0.908333	-140.489	-30.2179	21.4182	-140.741	-46.4969	-12.614	-161.279	-48.4913	-35.6888	-188.461	-43.4574	-42.6356	-144.118	6.04485	-44.9785	-140.041	2.9742	-68.0787	-138.369	-4.86775	-92.9529	-165.805	18.3817	-40.981	-163.232	26.8666	-69.6984	-164.09	33.0018	-95.7892	-187.619	11.1042	-38.8439	-189.788	14.2061	-64.4744	-193.296	15.4844	-86.3467	-207.501	-15.136	-32.309	-199.249	-40.449	-40.3174	-191.989	-58.9122	-18.1117	-187.762	8.3802	16.9021	-186.11	4.11451	46.3485	-153.157	5.07581	28.4448	
110	0.916667	-137.26	-33.1054	25.4159	-141.877	-46.8593	-13.8459	-162.816	-47.6765	-35.8822	-187.677	-41.5914	-37.4705	-142.707	4.52041	-43.4701	-142.568	-0.146882	-71.4974	-139.814	-6.45382	-92.8429	-163.891	18.3022	-43.9627	-164.179	24.8804	-70.0485	-160.644	33.0757	-100.684	-185.005	10.3655	-37.6227	-188.253	13.344	-61.2017	-192.636	15.5174	-86.7618	-204.241	-15.7245	-29.3953	-200.245	-41.3749	-36.5889	-190.279	-55.8836	-14.8944	-187.195	8.51587	17.2376	-186.32	3.36425	47.1304	-150.639	4.77528	28.5615	
111	0.925	-137.536	-32.725	24.7008	-140.496	-48.9196	-7.33385	-159.696	-50.2263	-33.275	-185.846	-46.3761	-40.4488	-141.128	2.17625	-43.7441	-140.863	-1.75285	-69.3629	-141.157	-11.8139	-95.6801	-161.492	17.2405	-44.3742	-163.707	21.0997	-68.5051	-161.609	29.1607	-99.7851	-186.551	8.16018	-38.2077	-189.126	11.7524	-61.1419	-191.027	12.9825	-86.3291	-206.849	-16.2372	-26.3098	-202.758	-43.9599	-35.2805	-189.79	-60.1514	-7.54105	-183.443	9.10785	12.0881	-182.838	3.13659	45.7785	-153.106	3.183	29.1624	
112	0.933333	-134.588	-34.5275	26.771	-140.495	-49.4514	-9.226	-159.981	-51.0622	-32.445	-187.211	-47.5408	-39.9554	-139.41	-0.276302	-43.1044	-136.464	-6.85929	-72.0984	-139.671	-17.2718	-97.6035	-165.65	13.7728	-42.1798	-159.302	17.5432	-67.8005	-158.439	23.6174	-96.8595	-184.579	6.50026	-40.0752	-186.581	8.72953	-61.548	-187.445	9.27739	-86.8268	-203.442	-20.758	-29.3215	-199.061	-43.9897	-33.8405	-187.39	-57.7826	-6.87083	-184.467	7.49356	16.0661	-182.214	3.38552	43.3547	-150.802	4.47771	26.7808	
113	0.941667	-134.268	-35.1598	23.8294	-139.103	-50.6091	-6.67255	-159.442	-53.3648	-33.342	-187.572	-47.2465	-39.6011	-139.403	-2.79519	-42.4169	-138.084	-9.248	-73.122	-139.043	-19.9224	-96.9339	-164.74	12.8492	-47.6532	-158.394	15.1309	-68.7348	-159.586	22.2881	-102.655	-182.304	5.37216	-41.1435	-183.569	5.9042	-62.0037	-188.356	8.44285	-90.4807	-203.548	-20.2335	-26.6216	-199.64	-49.7273	-30.8353	-188.635	-59.7308	-3.09952	-179.292	8.05824	12.7009	-184.373	3.81968	45.067	-148.594	1.71603	28.8596	
114	0.95	-136.736	-35.001	29.0498	-140.716	-48.7075	-8.93975	-160.291	-50.4446	-33.5769	-184.38	-47.2238	-35.7163	-137.912	-2.16425	-42.7092	-136.363	-10.1956	-71.1909	-140.42	-18.3007	-92.5318	-159.119	10.6995	-44.0182	-159.82	14.8254	-73.4697	-155.455	19.5018	-97.0155	-184.046	5.31393	-41.6979	-183.704	5.05297	-60.8535	-185.953	6.56473	-87.0735	-200.757	-18.9864	-25.3924	-196.778	-46.6816	-33.2299	-189.861	-60.2421	-6.10166	-182.113	5.51098	16.8061	-185.226	2.97824	41.9694	-151.315	2.75448	29.6237	
115	0.958333	-136.866	-32.273	26.7633	-135.991	-47.9966	-4.11835	-155.362	-51.6574	-34.2768	-180.597	-47.6855	-37.0162	-136.671	-0.384879	-41.0719	-133.504	-7.29244	-71.3319	-132.545	-16.0636	-91.5061	-163.015	11.8854	-45.0779	-161.704	15.3074	-73.723	-155.595	19.2052	-97.9452	-180.385	2.66854	-37.7852	-182.191	4.521	-67.032	-183.364	3.30072	-90.3611	-200.621	-23.2109	-30.5985	-196.942	-50.0569	-33.1617	-182.528	-60.4368	-7.24558	-183.782	5.32504	13.1872	-183.976	2.34164	42.5064	-148.061	2.19642	27.4769	
116	0.966667	-134.775	-28.0073	29.7542	-132.06	-43.0591	-7.72354	-146.318	-51.6073	-31.6655	-175.086	-49.136	-35.577	-138.759	1.95482	-41.1777	-134.346	-2.07504	-67.4158	-128.98	-10.9981	-92.9344	-165.139	11.2088	-44.8265	-159.455	15.4543	-73.0695	-159.89	19.3168	-101.794	-183.618	-0.170272	-40.4433	-181.602	0.682025	-68.1441	-184.891	-0.975804	-92.4299	-196.166	-28.2244	-32.4367	-191.254	-54.441	-35.4739	-178.664	-64.4843	-8.21792	-183.851	6.10934	10.8252	-191.298	1.76676	40.3576	-153.123	6.43508	28.9613	
117	0.975	-133.753	-22.1344	28.6536	-125.283	-39.7862	-7.80999	-139.503	-49.9399	-30.2744	-165.956	-53.9706	-36.7533	-141.509	5.65719	-45.9731	-130.966	1.6026	-70.7809	-126.306	-5.65262	-94.8973	-168.897	9.4406	-48.0235	-166.848	11.3878	-74.8835	-164.485	15.1193	-103.469	-181.885	-4.79083	-45.3029	-181.692	-5.29295	-67.3414	-183.099	-9.05354	-96.5285	-197.352	-34.5618	-32.7587	-182.514	-59.4671	-35.3426	-167.513	-64.0877	-8.39722	-189.772	1.95411	4.72275	-191.321	-2.52329	39.5939	-162.493	7.90498	23.001	
118	0.983333	-138.496	-14.8415	24.6435	-124.773	-32.6215	-7.53511	-136.795	-46.588	-30.4698	-158.758	-59.8355	-40.2875	-143.165	9.6563	-47.6725	-132.732	5.80468	-73.4257	-127.16	-0.218932	-94.8284	-170.902	6.68178	-52.0413	-166.992	8.82969	-78.0607	-166.109	10.6127	-109.697	-186.851	-12.4173	-52.6155	-185.198	-14.194	-72.7335	-182.221	-18.1595	-101.716	-192.756	-42.2305	-35.5187	-175.041	-63.6052	-37.1732	-158.26	-61.8809	-9.90386	-197.208	-3.45464	3.24406	-199.496	-6.34031	34.5628	-165.931	9.75507	22.7084	
119	0.991667	-141.763	-8.32185	22.0139	-122.06	-25.5075	-7.85213	-129.779	-44.615	-32.5926	-152.987	-59.7491	-37.5963	-148.216	12.3518	-47.2452	-137.451	10.5307	-72.5957	-128.352	5.08998	-97.6713	-177.318	2.99902	-57.7252	-172.118	4.97776	-86.0396	-168.724	7.11445	-115.904	-187.031	-16.5754	-54.2259	-181.652	-18.88	-77.1072	-179.65	-26.9506	-101.177	-186.211	-47.8191	-37.8432	-164.546	-65.0637	-34.3041	-151.968	-55.0868	-7.86092	-200.869	-7.77464	-4.1237	-204.691	-11.2395	28.0141	-177.198	10.1685	18.4949	
120	1	-143.733	0.176716	22.5939	-124.969	-17.2827	-3.60626	-126.974	-39.2258	-28.4755	-141.745	-56.318	-34.7684	-155.608	13.2497	-54.4416	-144.411	11.8428	-75.1671	-132.68	11.1098	-97.9246	-180.887	-2.0682	-57.3528	-174.223	0.582516	-87.628	-170.612	-0.257047	-115.078	-185.621	-20.5816	-51.6317	-180.986	-25.5157	-76.2739	-175.518	-34.6893	-105.142	-176.927	-51.0851	-38.7656	-151.638	-60.3373	-31.7044	-144.857	-53.9438	-7.44769	-203.595	-14.9474	-2.58004	-206.759	-16.8212	26.4644	-180.498	12.2692	11.1855	
121	1.00833	-148.528	7.31661	19.4362	-125.275	-8.57964	-3.49671	-122.396	-31.1441	-28.0879	-138.901	-55.9422	-35.771	-162.676	11.2353	-56.9665	-151.139	12.6918	-78.5023	-139.278	10.2178	-104.306	-182.209	-6.84224	-64.6843	-175.796	-3.43784	-86.7465	-173.694	-7.4892	-116.599	-185.182	-30.5411	-54.5777	-179.092	-35.2895	-79.014	-170.208	-41.1003	-103.395	-173.181	-55.4569	-35.8008	-145.365	-60.9268	-29.2233	-140.535	-48.97	-2.71162	-202.117	-19.9585	-7.98625	-208.368	-21.7115	26.0019	-190.112	9.97837	10.0568	
122	1.01667	-157.72	9.14852	19.1086	-130.399	-1.55404	-7.14859	-119.455	-25.4885	-30.4692	-132.106	-50.7348	-34.6916	-168.275	11.5397	-61.043	-157.802	13.8337	-80.096	-147.285	16.0591	-102.071	-184.605	-11.704	-64.7731	-177.891	-9.91687	-90.5843	-172.223	-10.0266	-121.376	-181.754	-35.0742	-57.477	-174.751	-39.7054	-80.4503	-164.521	-45.7252	-101.189	-162.21	-57.3098	-36.6272	-138.54	-55.3972	-28.2034	-136.407	-38.7965	-3.29167	-202.8	-27.9218	-10.3707	-210.486	-25.0175	23.3692	-194.571	8.45823	7.09684	
